<svg width="116" height="125" viewBox="0 0 116 125" fill="none" xmlns="http://www.w3.org/2000/svg">
<g filter="url(#filter0_d)">
<path d="M85.9796 58.4706C91.8434 50.4012 93.5188 42.7565 90.168 37.2353C87.2361 31.7141 80.1157 29.1659 70.4823 30.44C70.0635 30.44 70.0635 30.44 69.6446 30.44C66.2938 21.5212 60.8489 16 54.1473 16C47.8646 16 42.0008 21.5212 38.2312 30.44C28.1789 29.1659 21.0585 31.7141 17.7078 37.2353C14.357 43.1812 16.4512 50.8259 21.8962 58.4706C16.0324 66.1153 14.357 73.76 17.7078 79.7059C20.2208 84.3776 25.6658 86.9259 33.2051 86.9259C34.8804 86.9259 36.137 86.9259 37.8124 86.5012C42.0008 95.42 47.4458 100.941 54.1473 100.941C60.8489 100.941 66.2938 95.42 70.0635 86.5012C70.4823 86.5012 70.4823 86.5012 70.9011 86.5012C72.1577 86.5012 73.8331 86.9259 75.0896 86.9259C82.6288 86.9259 88.0738 84.3776 90.5869 79.7059C93.5188 73.76 91.8434 66.1153 85.9796 58.4706ZM83.0477 41.4824C84.3042 43.6059 83.0477 47.4282 80.1157 52.1C78.4404 50.4012 76.3461 48.7024 74.2519 47.0035C73.8331 44.0306 73.4142 41.4824 72.5765 38.9341C78.0215 38.5094 81.7911 39.3588 83.0477 41.4824ZM33.2051 58.4706C36.9747 54.6482 41.582 50.8259 47.8646 47.4282C53.3096 44.0306 59.1735 41.9071 64.6185 40.2082C65.875 45.3047 66.7127 51.6753 66.7127 58.4706C66.7127 65.2659 65.875 71.6365 64.6185 76.7329C59.1735 75.4588 53.7285 72.9106 47.8646 69.5129C42.0008 66.1153 36.9747 62.2929 33.2051 58.4706ZM54.1473 24.4941C56.6604 24.4941 59.1735 27.4671 61.6865 32.1388C55.8227 33.8376 49.9589 36.3859 43.6762 39.7835C46.1893 30.44 50.7966 24.4941 54.1473 24.4941ZM25.247 41.4824C26.5035 39.3588 30.2731 38.5094 35.7181 38.5094C34.8804 41.0576 34.4616 44.0306 34.0427 46.5788C31.9485 48.2776 29.8543 49.9765 27.7601 52.1C24.8281 47.4282 23.9905 43.6059 25.247 41.4824ZM25.247 75.4588C23.9905 73.3353 25.247 69.5129 28.1789 64.8412C29.8543 66.54 31.9485 68.2388 34.0427 69.9376C34.4616 72.9106 34.8804 75.4588 35.7181 78.0071C30.2731 78.4318 26.5035 77.5824 25.247 75.4588ZM54.1473 92.4471C50.7966 92.4471 46.1893 86.5012 43.6762 76.7329C49.54 80.1306 55.8227 82.6788 61.6865 84.3776C59.1735 89.4741 56.6604 92.4471 54.1473 92.4471ZM83.0477 75.4588C81.7911 77.5824 78.0215 78.4318 72.5765 78.4318C73.8331 72.4859 74.6708 66.1153 74.6708 58.8953C82.21 65.6906 84.723 72.4859 83.0477 75.4588Z" fill="#5BBC65"/>
</g>
<defs>
<filter id="filter0_d" x="0" y="0" width="116" height="124.941" filterUnits="userSpaceOnUse" color-interpolation-filters="sRGB">
<feFlood flood-opacity="0" result="BackgroundImageFix"/>
<feColorMatrix in="SourceAlpha" type="matrix" values="0 0 0 0 0 0 0 0 0 0 0 0 0 0 0 0 0 0 127 0"/>
<feOffset dx="4" dy="4"/>
<feGaussianBlur stdDeviation="10"/>
<feColorMatrix type="matrix" values="0 0 0 0 0 0 0 0 0 0 0 0 0 0 0 0 0 0 0.12 0"/>
<feBlend mode="normal" in2="BackgroundImageFix" result="effect1_dropShadow"/>
<feBlend mode="normal" in="SourceGraphic" in2="effect1_dropShadow" result="shape"/>
</filter>
</defs>
</svg>
