<svg width="115" height="115" viewBox="0 0 115 115" fill="none" xmlns="http://www.w3.org/2000/svg">
<g filter="url(#filter0_d)">
<path d="M77.875 61.625V21M53.5 29.125V21V29.125ZM53.5 29.125C51.3451 29.125 49.2785 29.981 47.7548 31.5048C46.231 33.0285 45.375 35.0951 45.375 37.25C45.375 39.4049 46.231 41.4715 47.7548 42.9952C49.2785 44.519 51.3451 45.375 53.5 45.375V29.125ZM53.5 29.125C55.6549 29.125 57.7215 29.981 59.2453 31.5048C60.769 33.0285 61.625 35.0951 61.625 37.25C61.625 39.4049 60.769 41.4715 59.2453 42.9952C57.7215 44.519 55.6549 45.375 53.5 45.375V29.125ZM29.125 77.875C31.2799 77.875 33.3465 77.019 34.8702 75.4952C36.394 73.9715 37.25 71.9049 37.25 69.75C37.25 67.5951 36.394 65.5285 34.8702 64.0048C33.3465 62.481 31.2799 61.625 29.125 61.625V77.875ZM29.125 77.875C26.9701 77.875 24.9035 77.019 23.3798 75.4952C21.856 73.9715 21 71.9049 21 69.75C21 67.5951 21.856 65.5285 23.3798 64.0048C24.9035 62.481 26.9701 61.625 29.125 61.625V77.875ZM29.125 77.875V86V77.875ZM29.125 61.625V21V61.625ZM53.5 45.375V86V45.375ZM77.875 77.875C80.0299 77.875 82.0965 77.019 83.6203 75.4952C85.144 73.9715 86 71.9049 86 69.75C86 67.5951 85.144 65.5285 83.6203 64.0048C82.0965 62.481 80.0299 61.625 77.875 61.625V77.875ZM77.875 77.875C75.7201 77.875 73.6535 77.019 72.1298 75.4952C70.606 73.9715 69.75 71.9049 69.75 69.75C69.75 67.5951 70.606 65.5285 72.1298 64.0048C73.6535 62.481 75.7201 61.625 77.875 61.625V77.875ZM77.875 77.875V86V77.875Z" stroke="#5BBC65" stroke-width="10" stroke-linecap="round" stroke-linejoin="round"/>
</g>
<defs>
<filter id="filter0_d" x="0" y="0" width="115" height="115" filterUnits="userSpaceOnUse" color-interpolation-filters="sRGB">
<feFlood flood-opacity="0" result="BackgroundImageFix"/>
<feColorMatrix in="SourceAlpha" type="matrix" values="0 0 0 0 0 0 0 0 0 0 0 0 0 0 0 0 0 0 127 0"/>
<feOffset dx="4" dy="4"/>
<feGaussianBlur stdDeviation="10"/>
<feColorMatrix type="matrix" values="0 0 0 0 0 0 0 0 0 0 0 0 0 0 0 0 0 0 0.12 0"/>
<feBlend mode="normal" in2="BackgroundImageFix" result="effect1_dropShadow"/>
<feBlend mode="normal" in="SourceGraphic" in2="effect1_dropShadow" result="shape"/>
</filter>
</defs>
</svg>
