<svg width="102" height="116" viewBox="0 0 102 116" fill="none" xmlns="http://www.w3.org/2000/svg">
<g filter="url(#filter0_d)">
<path fill-rule="evenodd" clip-rule="evenodd" d="M26.2 16C23.4948 16 20.9004 17.0009 18.9875 18.7825C17.0746 20.5641 16 22.9804 16 25.5V82.5C16 85.0196 17.0746 87.4359 18.9875 89.2175C20.9004 90.9991 23.4948 92 26.2 92H67C69.7052 92 72.2996 90.9991 74.2125 89.2175C76.1254 87.4359 77.2 85.0196 77.2 82.5V41.7165C77.1994 39.1971 76.1244 36.7812 74.2114 35L56.8 18.7835C54.8876 17.0018 52.2936 16.0005 49.5886 16H26.2ZM36.4 63.5C36.4 62.2402 35.8627 61.032 34.9062 60.1412C33.9498 59.2504 32.6526 58.75 31.3 58.75C29.9474 58.75 28.6502 59.2504 27.6938 60.1412C26.7373 61.032 26.2 62.2402 26.2 63.5V77.75C26.2 79.0098 26.7373 80.218 27.6938 81.1088C28.6502 81.9996 29.9474 82.5 31.3 82.5C32.6526 82.5 33.9498 81.9996 34.9062 81.1088C35.8627 80.218 36.4 79.0098 36.4 77.75V63.5ZM46.6 49.25C47.9526 49.25 49.2498 49.7504 50.2062 50.6412C51.1627 51.532 51.7 52.7402 51.7 54V77.75C51.7 79.0098 51.1627 80.218 50.2062 81.1088C49.2498 81.9996 47.9526 82.5 46.6 82.5C45.2474 82.5 43.9502 81.9996 42.9938 81.1088C42.0373 80.218 41.5 79.0098 41.5 77.75V54C41.5 52.7402 42.0373 51.532 42.9938 50.6412C43.9502 49.7504 45.2474 49.25 46.6 49.25ZM67 44.5C67 43.2402 66.4627 42.032 65.5062 41.1412C64.5498 40.2504 63.2526 39.75 61.9 39.75C60.5474 39.75 59.2502 40.2504 58.2938 41.1412C57.3373 42.032 56.8 43.2402 56.8 44.5V77.75C56.8 79.0098 57.3373 80.218 58.2938 81.1088C59.2502 81.9996 60.5474 82.5 61.9 82.5C63.2526 82.5 64.5498 81.9996 65.5062 81.1088C66.4627 80.218 67 79.0098 67 77.75V44.5Z" fill="#5BBC65"/>
</g>
<defs>
<filter id="filter0_d" x="0" y="0" width="101.2" height="116" filterUnits="userSpaceOnUse" color-interpolation-filters="sRGB">
<feFlood flood-opacity="0" result="BackgroundImageFix"/>
<feColorMatrix in="SourceAlpha" type="matrix" values="0 0 0 0 0 0 0 0 0 0 0 0 0 0 0 0 0 0 127 0"/>
<feOffset dx="4" dy="4"/>
<feGaussianBlur stdDeviation="10"/>
<feColorMatrix type="matrix" values="0 0 0 0 0 0 0 0 0 0 0 0 0 0 0 0 0 0 0.12 0"/>
<feBlend mode="normal" in2="BackgroundImageFix" result="effect1_dropShadow"/>
<feBlend mode="normal" in="SourceGraphic" in2="effect1_dropShadow" result="shape"/>
</filter>
</defs>
</svg>
