<svg width="70" height="90" viewBox="0 0 70 90" fill="none" xmlns="http://www.w3.org/2000/svg">
<path fill-rule="evenodd" clip-rule="evenodd" d="M32.6982 26.9837C26.305 16.7303 33.4604 0.164867 49.0863 0C53.196 11.6104 47.1887 28.1683 32.6982 26.9837Z" fill="#5BBC65"/>
<path fill-rule="evenodd" clip-rule="evenodd" d="M19.7767 56.1319L16.855 54.4931L11.0442 57.7523V64.1997L16.855 67.459L22.6659 64.1997V58.0757V57.7523L19.7767 56.1319Z" fill="#5BBC65"/>
<path fill-rule="evenodd" clip-rule="evenodd" d="M24.3409 63.8763V64.2001L30.1518 67.4592L35.9624 64.2001V57.7523L33.0735 56.132L30.1518 54.4931L24.3409 57.7523V63.8763Z" fill="#5BBC65"/>
<path fill-rule="evenodd" clip-rule="evenodd" d="M55.108 48.6492L52.1862 47.0103L46.3754 50.2696V56.7173L52.1862 59.9764L57.9969 56.7173V50.2696L55.108 48.6492Z" fill="#5BBC65"/>
<path fill-rule="evenodd" clip-rule="evenodd" d="M52.5877 48.9862L55.9359 50.8643L55.1317 52.3623L51.7834 50.4842L52.5877 48.9862Z" fill="white"/>
<path fill-rule="evenodd" clip-rule="evenodd" d="M48.0004 55.3709V51.6147H49.6746V55.3709H48.0004Z" fill="white"/>
<path fill-rule="evenodd" clip-rule="evenodd" d="M55.9359 56.1186L52.5877 57.9966L51.7834 56.4986L55.1317 54.6206L55.9359 56.1186Z" fill="white"/>
<path fill-rule="evenodd" clip-rule="evenodd" d="M3.52334 67.4791C-2.47777 52.6976 -1.69125 34.9038 12.7984 28.2857C18.8523 25.5204 25.1654 26.4595 31.0152 28.9552C33.5848 30.0516 36.1811 30.0516 38.7507 28.9552C44.6003 26.4595 50.9135 25.5206 56.9675 28.2857C63.6301 31.3288 67.3907 36.7372 68.9314 43.1269L58.8352 48.7896L52.5956 45.2899C52.3526 45.151 52.0472 45.1394 51.7854 45.2864L45.1836 48.9894C44.8993 49.1263 44.7026 49.4218 44.7026 49.7642L44.704 56.7162L43.608 57.331L39.668 55.1211C39.4249 54.9822 39.1195 54.9706 38.8577 55.1177L36.7987 56.2726L30.559 52.7729C30.3161 52.6341 30.0107 52.6224 29.7487 52.7695L23.5027 56.2726L19.4457 53.9972V49.1737H17.7716V53.0581L17.2632 52.7729C17.0202 52.6341 16.7149 52.6224 16.4529 52.7695L15.9383 53.0581V49.1737H14.2641V53.9972L9.85108 56.4724C9.56681 56.6094 9.37011 56.9049 9.37011 57.2473L9.37145 64.1989L3.52334 67.4791Z" fill="#5BBC65"/>
<path fill-rule="evenodd" clip-rule="evenodd" d="M32.4591 89.4547C21.0986 92.3427 10.0108 82.1153 4.19417 69.0514L10.2065 65.6791L16.4462 69.1789C16.6891 69.3178 16.9944 69.3295 17.2564 69.1824L23.5022 65.6793L29.742 69.1789C29.9849 69.3178 30.2903 69.3295 30.5523 69.1824L37.1539 65.4796C37.4382 65.3427 37.6349 65.0472 37.6349 64.7048L37.6336 57.753L39.2591 56.841L43.2052 59.0543C43.4672 59.2013 43.7726 59.1897 44.0155 59.0509L45.539 58.1962L51.7787 61.6959C52.0217 61.8348 52.3271 61.8464 52.5889 61.6993L59.1907 57.9966C59.475 57.8596 59.6717 57.5641 59.6717 57.2217L59.6704 50.2698L69.291 44.8737C72.8617 65.2977 55.4293 94.0619 37.3054 89.4547C35.6398 89.0313 34.1247 89.0313 32.4591 89.4547Z" fill="#4D9953"/>
<path fill-rule="evenodd" clip-rule="evenodd" d="M16.4534 65.4791L13.1052 63.601L13.9094 62.103L17.2577 63.9811L16.4534 65.4791Z" fill="white"/>
<path fill-rule="evenodd" clip-rule="evenodd" d="M33.9014 63.601L30.5531 65.4791L29.7489 63.9811L33.0971 62.103L33.9014 63.601Z" fill="white"/>
<path fill-rule="evenodd" clip-rule="evenodd" d="M30.5531 56.4696L33.9014 58.3474L33.0971 59.8454L29.7489 57.9675L30.5531 56.4696Z" fill="white"/>
<path fill-rule="evenodd" clip-rule="evenodd" d="M25.9659 62.8543V59.0981H27.64V62.8543H25.9659Z" fill="white"/>
</svg>
