<svg width="52" height="52" viewBox="0 0 52 52" fill="none" xmlns="http://www.w3.org/2000/svg">
<path d="M26 0C11.6406 0 0 11.6405 0 26C0 40.3593 11.6406 52 26 52C40.3593 52 52 40.3593 52 26C52 11.6405 40.3593 0 26 0ZM29.1946 41.6H23.1978V35.8205H29.1946V41.6ZM33.0172 24.5224L29.8013 28.7809C29.3665 29.3463 29.0207 30.2585 29.0207 30.9977V31.9098H23.3718V30.6063C23.3718 28.7374 23.8915 27.5644 25.0221 26.087L28.238 21.9589C28.9337 21.0468 29.498 20.0042 29.498 19.0474C29.498 17.0057 28.1511 15.4846 25.9787 15.4846C23.675 15.4846 22.502 17.0927 22.502 19.0909H16.853C16.853 13.7028 20.9385 10.4 25.9787 10.4C30.8875 10.4 35.147 13.5724 35.147 19.0909C35.147 21.2642 34.2348 22.9146 33.0172 24.5224Z" fill="white"/>
</svg>
