<svg width="115" height="115" viewBox="0 0 115 115" fill="none" xmlns="http://www.w3.org/2000/svg"><g filter="url(#filter0_d)"><path d="M77.875 61.625V21M53.5 29.125V21v8.125zm0 0a8.125 8.125 0 100 16.25v-16.25zm0 0a8.125 8.125 0 110 16.25v-16.25zm-24.375 48.75a8.125 8.125 0 100-16.25v16.25zm0 0a8.125 8.125 0 110-16.25v16.25zm0 0V86v-8.125zm0-16.25V21v40.625zM53.5 45.375V86 45.375zm24.375 32.5a8.125 8.125 0 100-16.25v16.25zm0 0a8.125 8.125 0 110-16.25v16.25zm0 0V86v-8.125z" stroke="#5BBC65" stroke-width="10" stroke-linecap="round" stroke-linejoin="round"/></g><defs><filter id="filter0_d" x="0" y="0" width="115" height="115" filterUnits="userSpaceOnUse" color-interpolation-filters="sRGB"><feFlood flood-opacity="0" result="BackgroundImageFix"/><feColorMatrix in="SourceAlpha" values="0 0 0 0 0 0 0 0 0 0 0 0 0 0 0 0 0 0 127 0"/><feOffset dx="4" dy="4"/><feGaussianBlur stdDeviation="10"/><feColorMatrix values="0 0 0 0 0 0 0 0 0 0 0 0 0 0 0 0 0 0 0.12 0"/><feBlend in2="BackgroundImageFix" result="effect1_dropShadow"/><feBlend in="SourceGraphic" in2="effect1_dropShadow" result="shape"/></filter></defs></svg>