<svg width="102" height="116" viewBox="0 0 102 116" fill="none" xmlns="http://www.w3.org/2000/svg"><g filter="url(#filter0_d)"><path fill-rule="evenodd" clip-rule="evenodd" d="M26.2 16c-2.705 0-5.3 1-7.212 2.782C17.075 20.564 16 22.98 16 25.5v57c0 2.52 1.075 4.936 2.988 6.718C20.9 90.999 23.495 92 26.2 92H67c2.705 0 5.3-1 7.213-2.782C76.125 87.436 77.2 85.02 77.2 82.5V41.717c0-2.52-1.076-4.936-2.989-6.717L56.8 18.784C54.888 17.002 52.294 16 49.589 16H26.2zm10.2 47.5c0-1.26-.537-2.468-1.494-3.359-.956-.89-2.253-1.391-3.606-1.391-1.353 0-2.65.5-3.606 1.391-.957.891-1.494 2.1-1.494 3.359v14.25c0 1.26.537 2.468 1.494 3.359.956.89 2.253 1.391 3.606 1.391 1.353 0 2.65-.5 3.606-1.391.957-.891 1.494-2.1 1.494-3.359V63.5zm10.2-14.25c1.353 0 2.65.5 3.606 1.391.957.891 1.494 2.1 1.494 3.359v23.75c0 1.26-.537 2.468-1.494 3.359-.956.89-2.253 1.391-3.606 1.391-1.353 0-2.65-.5-3.606-1.391-.957-.891-1.494-2.1-1.494-3.359V54c0-1.26.537-2.468 1.494-3.359.956-.89 2.253-1.391 3.606-1.391zM67 44.5c0-1.26-.537-2.468-1.494-3.359-.956-.89-2.253-1.391-3.606-1.391-1.353 0-2.65.5-3.606 1.391-.957.891-1.494 2.1-1.494 3.359v33.25c0 1.26.537 2.468 1.494 3.359.956.89 2.253 1.391 3.606 1.391 1.353 0 2.65-.5 3.606-1.391.957-.891 1.494-2.1 1.494-3.359V44.5z" fill="#5BBC65"/></g><defs><filter id="filter0_d" x="0" y="0" width="101" height="116" filterUnits="userSpaceOnUse" color-interpolation-filters="sRGB"><feFlood flood-opacity="0" result="BackgroundImageFix"/><feColorMatrix in="SourceAlpha" values="0 0 0 0 0 0 0 0 0 0 0 0 0 0 0 0 0 0 127 0"/><feOffset dx="4" dy="4"/><feGaussianBlur stdDeviation="10"/><feColorMatrix values="0 0 0 0 0 0 0 0 0 0 0 0 0 0 0 0 0 0 0.12 0"/><feBlend in2="BackgroundImageFix" result="effect1_dropShadow"/><feBlend in="SourceGraphic" in2="effect1_dropShadow" result="shape"/></filter></defs></svg>