<svg width="70" height="90" viewBox="0 0 70 90" fill="none" xmlns="http://www.w3.org/2000/svg"><path fill-rule="evenodd" clip-rule="evenodd" d="M32.698 26.984C26.305 16.73 33.46.164 49.086 0c4.11 11.61-1.897 28.168-16.388 26.984zM19.777 56.132l-2.922-1.639-5.81 3.26V64.2l5.81 3.259 5.81-3.26v-6.447l-2.888-1.62zm4.563 7.744v.324l5.812 3.26 5.81-3.26v-6.448l-2.889-1.62-2.921-1.639-5.811 3.26v6.123zM55.108 48.65l-2.922-1.64-5.81 3.26v6.447l5.81 3.26 5.81-3.26V50.27l-2.888-1.62z" fill="#5BBC65"/><path fill-rule="evenodd" clip-rule="evenodd" d="M52.588 48.986l3.348 1.878-.804 1.498-3.349-1.878.805-1.498zM48 55.37v-3.755h1.675v3.756H48zm7.936.749l-3.348 1.878-.805-1.498 3.349-1.878.804 1.498z" fill="#fff"/><path fill-rule="evenodd" clip-rule="evenodd" d="M3.523 67.48c-6-14.782-5.214-32.576 9.275-39.194 6.054-2.766 12.367-1.827 18.217.67 2.57 1.096 5.166 1.096 7.736 0 5.85-2.497 12.163-3.435 18.217-.67 6.662 3.043 10.423 8.451 11.963 14.84L58.835 48.79l-6.24-3.5a.819.819 0 00-.81-.004l-6.601 3.703a.858.858 0 00-.481.775l.001 6.952-1.096.615-3.94-2.21a.819.819 0 00-.81-.003l-2.06 1.155-6.239-3.5a.819.819 0 00-.81-.004l-6.246 3.504-4.057-2.276v-4.823h-1.674v3.884l-.509-.285a.819.819 0 00-.81-.004l-.515.29v-3.885h-1.674v4.823l-4.413 2.475a.858.858 0 00-.48.775V64.2l-5.848 3.28z" fill="#5BBC65"/><path fill-rule="evenodd" clip-rule="evenodd" d="M32.46 89.455c-11.361 2.888-22.45-7.34-28.266-20.404l6.013-3.372 6.24 3.5c.242.139.547.15.81.003l6.245-3.503 6.24 3.5c.243.139.548.15.81.003l6.602-3.702a.858.858 0 00.48-.775v-6.952l1.625-.912 3.946 2.213a.819.819 0 00.81-.003l1.524-.855 6.24 3.5c.243.139.548.15.81.003l6.602-3.702a.858.858 0 00.48-.775V50.27l9.62-5.396c3.57 20.424-13.862 49.188-31.986 44.58-1.665-.423-3.18-.423-4.846 0z" fill="#4D9953"/><path fill-rule="evenodd" clip-rule="evenodd" d="M16.453 65.48l-3.348-1.88.804-1.498 3.349 1.878-.805 1.498zm17.448-1.879l-3.348 1.878-.804-1.498 3.348-1.878.804 1.498zm-3.348-7.131l3.348 1.877-.804 1.498-3.348-1.877.804-1.498zm-4.587 6.384v-3.756h1.674v3.756h-1.674z" fill="#fff"/></svg>