<svg width="52" height="52" viewBox="0 0 52 52" fill="none" xmlns="http://www.w3.org/2000/svg"><path d="M26 0C11.64 0 0 11.64 0 26s11.64 26 26 26 26-11.64 26-26S40.36 0 26 0zm3.195 41.6h-5.997v-5.78h5.997v5.78zm3.822-17.078l-3.216 4.259c-.434.565-.78 1.478-.78 2.217v.912h-5.65v-1.304c0-1.869.52-3.042 1.651-4.519l3.216-4.128c.696-.912 1.26-1.955 1.26-2.912 0-2.041-1.347-3.562-3.52-3.562-2.303 0-3.476 1.608-3.476 3.606h-5.649c0-5.388 4.085-8.691 9.126-8.691 4.909 0 9.168 3.172 9.168 8.69 0 2.174-.912 3.825-2.13 5.432z" fill="#fff"/></svg>